PathFileType	4	(X/Y/Z)	E:\Marcel_BSc\Ayumi_22_01_2025\22-01-2025\static_00.trc
DataRate	CameraRate	NumFrames	NumMarkers	Units	OrigDataRate	OrigDataStartFrame	OrigNumFrames
200.0	200.0	4	59	mm	200.0	184	352	
Frame#	Time	FHD			LBHD			RBHD			RBAR			LBAR			RASI			RSACR			LSACR			LASI			USACR			C7			CLAV			T10			RSHO			LSHO			LTHI1			LTHI3			LTHI2			LLFC			LMFC			LTIB1			LTIB2			LTIB3			LMMAL			LLMAL			LHEE			LMT1			LMT5			LMT3			RTHI1			RTHI2			RTHI3			RLFC			RMFC			RTIB1			RTIB3			RTIB2			RLMAL			RMMAL			RHEE			RMT5			RMT1			RMT3			LMEP			LLEP			LDUPA			LMUPA			LUUPA			LUL			LRAD			LRFIN			RUL			RRAD			RUFIN			RMEP			RLEP			RMUPA			RDUPA			RUUPA			
		X1	Y1	Z1	X2	Y2	Z2	X3	Y3	Z3	X4	Y4	Z4	X5	Y5	Z5	X6	Y6	Z6	X7	Y7	Z7	X8	Y8	Z8	X9	Y9	Z9	X10	Y10	Z10	X11	Y11	Z11	X12	Y12	Z12	X13	Y13	Z13	X14	Y14	Z14	X15	Y15	Z15	X16	Y16	Z16	X17	Y17	Z17	X18	Y18	Z18	X19	Y19	Z19	X20	Y20	Z20	X21	Y21	Z21	X22	Y22	Z22	X23	Y23	Z23	X24	Y24	Z24	X25	Y25	Z25	X26	Y26	Z26	X27	Y27	Z27	X28	Y28	Z28	X29	Y29	Z29	X30	Y30	Z30	X31	Y31	Z31	X32	Y32	Z32	X33	Y33	Z33	X34	Y34	Z34	X35	Y35	Z35	X36	Y36	Z36	X37	Y37	Z37	X38	Y38	Z38	X39	Y39	Z39	X40	Y40	Z40	X41	Y41	Z41	X42	Y42	Z42	X43	Y43	Z43	X44	Y44	Z44	X45	Y45	Z45	X46	Y46	Z46	X47	Y47	Z47	X48	Y48	Z48	X49	Y49	Z49	X50	Y50	Z50	X51	Y51	Z51	X52	Y52	Z52	X53	Y53	Z53	X54	Y54	Z54	X55	Y55	Z55	X56	Y56	Z56	X57	Y57	Z57	X58	Y58	Z58	X59	Y59	Z59	
184	0.91	106.87881	1611.0911	-968.12347	125.34057	1594.0267	-907.7793	143.51396	1583.3303	-1038.7786				1040.873	20.050697	-2031.3383	162.1568	927.16528	-1103.3538	322.58099	960.03516	-1015.7761	319.38248	960.70905	-942.1485	148.98154	912.32056	-866.04089	314.5553	970.4295	-980.06549	296.62091	1401.4996	-964.49878	162.27876	1329.073	-981.63733	319.63443	1117.7988	-974.37115	235.61594	1406.3628	-1113.4231	214.93626	1398.7332	-831.51495	237.23297	606.54425	-807.98883	261.80725	546.10889	-819.23969	211.10521	545.8811	-818.30182	229.83217	449.40643	-841.07507	243.06857	441.29468	-939.93976	256.62692	233.62059	-819.71356	306.87921	232.46907	-815.70447	280.07199	173.51544	-825.8501	284.35519	71.801712	-914.69104	297.87616	69.613441	-843.43549	341.00174	33.964497	-881.71942	143.87833	39.203228	-873.66663	169.43019	26.849813	-796.96912	144.84735	37.234032	-837.7179	257.41721	608.00366	-1157.0413	229.47095	549.42993	-1149.4233	281.33594	547.69281	-1147.599	240.08142	455.15137	-1125.7197	247.89227	449.33707	-1024.542	271.22421	277.24442	-1159.8572	294.25656	215.24519	-1155.6886	322.08893	274.99823	-1160.8805	307.61868	73.5784	-1134.9502	276.86472	75.606613	-1063.9971	351.60956	28.391813	-1095.3679	178.77873	29.359102	-1179.4204	151.09747	37.713886	-1115.5319	156.15883	36.019558	-1148.2877	202.52408	1278.1718	-581.62354	253.16614	1329.6212	-564.0249	252.14842	1361.6317	-644.96692	281.96103	1322.1285	-640.68738	268.18964	1367.9102	-704.797	231.52698	1333.8586	-327.23193	167.80939	1351.1925	-320.01379	179.02063	1348.3735	-245.68941	281.91165	1339.0134	-1612.2723	221.59616	1354.8549	-1613.0811	220.92198	1351.4684	-1687.2386	263.89447	1277.4635	-1374.8967	302.60477	1337.7653	-1378.179	308.92148	1362.7728	-1218.14	312.2291	1350.6306	-1278.4358	327.64224	1317.5156	-1208.3751
185	0.915	106.85745	1611.0651	-968.12323	125.33763	1593.9287	-907.80457	143.48003	1583.325	-1038.7686				1040.9099	20.042612	-2031.3699	162.18579	927.18842	-1103.3326	322.58118	960.03082	-1015.7776	319.39432	960.70203	-942.16235	148.98186	912.32843	-866.04584	314.54865	970.48059	-980.04736	296.61652	1401.4927	-964.49341	162.27686	1329.0536	-981.64227	319.64185	1117.8264	-974.37006	235.62245	1406.3645	-1113.4072	214.93294	1398.7491	-831.49835	237.25894	606.53448	-807.98828	261.81564	546.10046	-819.27509	211.10741	545.89587	-818.23499	229.8278	449.39801	-841.06531	243.08284	441.23746	-940.04285	256.64316	233.61342	-819.71906	306.86911	232.50479	-815.70483	280.05377	173.51295	-825.86304	284.31348	71.825638	-914.71899	297.87042	69.617477	-843.43542	340.97897	33.975544	-881.66315	143.86649	39.136032	-873.68695	169.43336	26.826023	-796.97821	144.8481	37.212223	-837.7298	257.37631	608.02301	-1157.0507	229.57483	549.34863	-1149.4154	281.33676	547.67926	-1147.6	240.08728	455.12949	-1125.7291	247.77184	449.43289	-1024.623	271.20883	277.25168	-1159.8536	294.26285	215.2737	-1155.6624	322.06744	274.99493	-1160.8771	307.61615	73.581642	-1134.957	276.84875	75.615234	-1064.0034	351.60989	28.390856	-1095.3544	178.78471	29.334297	-1179.413	151.09409	37.722897	-1115.5433	156.17088	36.000011	-1148.2736	202.53165	1278.1663	-581.59174	253.17096	1329.5792	-564.01605	252.13335	1361.6138	-644.9588	281.96771	1322.1166	-640.67224	268.18021	1367.8497	-704.8053	231.53102	1333.8081	-327.22858	167.80122	1351.1976	-319.97974	179.01566	1348.3312	-245.67888	281.91409	1339.0549	-1612.2739	221.61461	1354.9094	-1613.0668	220.92441	1351.5605	-1687.2162	263.89267	1277.5142	-1374.9025	302.58218	1337.788	-1378.1809	308.89371	1362.8037	-1218.137	312.21942	1350.6571	-1278.4183	327.62384	1317.516	-1208.3751
186	0.92	106.83999	1611.0442	-968.1189	125.28709	1593.9397	-907.79156	143.44995	1583.3213	-1038.7697				1040.9258	20.041077	-2031.4001	162.16385	927.19257	-1103.3394	322.59198	960.02972	-1015.7842	319.40457	960.69971	-942.15814	148.99786	912.32251	-866.02759	314.58807	970.38861	-980.0946	296.5997	1401.48	-964.49463	162.25984	1329.061	-981.6308	319.63159	1117.8188	-974.37335	235.58327	1406.3905	-1113.4015	214.8922	1398.7336	-831.48798	237.26822	606.55304	-807.97791	261.78513	546.11255	-819.27466	211.14554	545.94568	-818.1189	229.84361	449.40247	-841.0625	243.10028	441.23129	-940.03168	256.61945	233.62001	-819.72113	306.8801	232.48723	-815.69623	280.07129	173.5173	-825.85193	284.3063	71.814697	-914.71893	297.8812	69.613968	-843.43896	340.99976	33.98122	-881.69977	143.82962	39.163891	-873.69666	169.43373	26.832895	-796.97595	144.84938	37.228966	-837.72546	257.41077	607.98883	-1157.052	229.51154	549.41022	-1149.3933	281.33862	547.67706	-1147.5944	240.07661	455.1615	-1125.7242	247.83369	449.38989	-1024.5834	271.20831	277.25821	-1159.8474	294.26337	215.26567	-1155.6689	322.30756	275.23502	-1161.1709	307.61172	73.567787	-1134.9579	276.85367	75.605156	-1063.9999	351.60345	28.367374	-1095.3636	178.77333	29.352219	-1179.4082	151.11375	37.697594	-1115.5461	156.17052	36.009274	-1148.2764	202.53178	1278.1464	-581.60724	253.18039	1329.5568	-564.00745	252.13013	1361.6014	-644.95587	281.95667	1322.1089	-640.67468	268.16656	1367.8706	-704.79016	231.53156	1333.7939	-327.2247	167.81969	1351.1523	-319.94913	179.0623	1348.3079	-245.65901	281.92557	1339.1038	-1612.2668	221.62386	1354.9729	-1613.0645	220.92955	1351.5946	-1687.2275	263.90866	1277.5417	-1374.9069	302.57288	1337.844	-1378.1608	308.90363	1362.795	-1218.1244	312.21783	1350.6234	-1278.4427	327.60535	1317.5391	-1208.3593
187	0.925	106.78969	1611.064	-968.0957	125.2694	1593.9407	-907.78955	143.43871	1583.3146	-1038.7509				1040.912	20.063057	-2031.4305	162.21024	927.10498	-1103.3896	322.58844	960.01587	-1015.7983	319.40945	960.69244	-942.16425	149.00841	912.33582	-866.03729	314.58231	970.40814	-980.0871	296.59134	1401.4894	-964.47888	162.25549	1329.0587	-981.61652	319.62537	1117.8345	-974.3775	235.58757	1406.4052	-1113.3694	214.89214	1398.7656	-831.47516	237.28218	606.56195	-807.974	261.79611	546.10486	-819.26721	211.13106	545.88983	-818.29767	229.84421	449.41229	-841.06592	243.07465	441.25076	-940.05133	256.64011	233.64012	-819.71613	306.87299	232.49797	-815.69409	280.03891	173.52383	-825.85132	284.29108	71.842987	-914.72321	297.8764	69.614967	-843.44269	340.99426	33.985458	-881.68225	143.88249	39.200901	-873.67395	169.43448	26.82538	-796.97913	144.85329	37.238998	-837.71497	257.40552	608.01349	-1157.0355	229.55017	549.34949	-1149.3899	281.3114	547.68524	-1147.6011	240.07292	455.17599	-1125.7095	247.82909	449.39862	-1024.5815	271.20221	277.27011	-1159.8457	294.26541	215.25348	-1155.6692	322.08588	275.01184	-1160.8885	307.61935	73.577766	-1134.9465	276.88892	75.610954	-1064.016	351.60388	28.391331	-1095.3607	178.76289	29.346771	-1179.4065	151.10754	37.70583	-1115.5345	156.16916	36.023834	-1148.2832	202.53622	1278.1248	-581.60321	253.1581	1329.5482	-564.01135	252.11119	1361.606	-644.94489	281.94986	1322.1034	-640.67096	268.16345	1367.8555	-704.78772	231.5246	1333.7666	-327.20822	167.8233	1351.1138	-319.95053	179.02632	1348.2795	-245.66846	281.93484	1339.1522	-1612.2714	221.53285	1355.1338	-1613.4834	220.94197	1351.6887	-1687.2053	263.90918	1277.5878	-1374.8914	302.57715	1337.8741	-1378.1405	308.90286	1362.8226	-1218.1047	312.19061	1350.7048	-1278.4088	327.58813	1317.5398	-1208.3649
